<svg width="32" height="32" viewBox="0 0 32 32" fill="none" xmlns="http://www.w3.org/2000/svg">
<rect x="0.5" y="0.5" width="31" height="31" rx="4.5" stroke="#048C80"/>
<path d="M11.1051 19.2101C12.2151 19.6501 13 20.7334 13 22C13 23.6569 11.6568 25 10 25C8.34315 25 7 23.6569 7 22C7 20.6938 7.83481 19.5825 9 19.1707V12.8293C7.83481 12.4175 7 11.3062 7 10C7 8.34315 8.34315 7 10 7C11.6568 7 13 8.34315 13 10C13 11.3062 12.1652 12.4175 11 12.8293V15.9996C11.8357 15.3719 12.8744 15 14 15H18C19.3835 15 20.5482 14.0635 20.8949 12.7899C19.7849 12.3499 19 11.2666 19 10C19 8.34315 20.3431 7 22 7C23.6569 7 25 8.34315 25 10C25 11.3332 24.1303 12.4633 22.9274 12.8539C22.5222 15.2085 20.4703 17 18 17H14C12.6165 17 11.4518 17.9365 11.1051 19.2101Z" fill="url(#paint0_linear_4111_282)"/>
<defs>
<linearGradient id="paint0_linear_4111_282" x1="25" y1="7" x2="-0.580853" y2="25.5405" gradientUnits="userSpaceOnUse">
<stop stop-color="#AAD9D1"/>
<stop offset="1" stop-color="#017373"/>
</linearGradient>
</defs>
</svg>
