<svg width="376" height="376" viewBox="0 0 376 376" fill="none" xmlns="http://www.w3.org/2000/svg">
<g clip-path="url(#clip0_4111_638)">
<path d="M107.24 0.493652H18.5773C8.66669 0.493652 0.632568 8.52777 0.632568 18.4384V107.102C0.632568 117.012 8.66669 125.046 18.5773 125.046H107.24C117.151 125.046 125.185 117.012 125.185 107.102V18.4384C125.185 8.52777 117.151 0.493652 107.24 0.493652Z" stroke="#048C80" stroke-miterlimit="10"/>
<path d="M22.5546 22.2815V102.811H103.084V22.2815H22.5546ZM81.0818 82.1643C62.4928 99.5676 39.1974 104.896 29.0506 94.0558C18.9039 83.2201 25.7489 60.3273 44.3379 42.9195C62.9268 25.5161 86.2223 20.1877 96.369 31.0279C106.516 41.8636 99.6707 64.7564 81.0818 82.1643Z" fill="url(#paint0_linear_4111_638)"/>
</g>
<g clip-path="url(#clip1_4111_638)">
<path d="M232.24 0.493652H143.577C133.667 0.493652 125.633 8.52777 125.633 18.4384V107.102C125.633 117.012 133.667 125.046 143.577 125.046H232.24C242.151 125.046 250.185 117.012 250.185 107.102V18.4384C250.185 8.52777 242.151 0.493652 232.24 0.493652Z" stroke="#048C80" stroke-miterlimit="10"/>
<path d="M191.591 97.4783C194.123 90.4409 198.208 83.8196 203.84 78.1557L203.943 78.0528C209.585 72.4112 216.175 68.3176 223.185 65.7631C227.552 64.1748 232.08 63.1816 236.638 62.7924C232.093 62.5419 227.579 61.6874 223.226 60.2378C215.92 57.813 209.075 53.7015 203.277 47.9034C197.483 42.1097 193.367 35.2557 190.942 27.9544C189.385 23.2747 188.522 18.4071 188.347 13.5127L188.16 13.7006C187.824 18.5592 186.808 23.3821 185.117 28.0215C182.572 35.0007 178.487 41.5684 172.877 47.1965L172.836 47.2368C167.231 52.8425 160.681 56.9272 153.715 59.4817C149.044 61.1952 144.19 62.2197 139.3 62.5598L139.242 62.6179C144.128 62.7924 148.982 63.6559 153.653 65.2038C160.963 67.6331 167.826 71.7446 173.628 77.5517C179.435 83.3588 183.542 90.2128 185.972 97.5275C187.524 102.198 188.388 107.052 188.562 111.938L188.593 111.907C188.902 107.017 189.9 102.154 191.582 97.4739L191.591 97.4783Z" fill="url(#paint1_linear_4111_638)"/>
</g>
<g clip-path="url(#clip2_4111_638)">
<path d="M357.24 0.493652H268.577C258.667 0.493652 250.633 8.52777 250.633 18.4384V107.102C250.633 117.012 258.667 125.046 268.577 125.046H357.24C367.151 125.046 375.185 117.012 375.185 107.102V18.4384C375.185 8.52777 367.151 0.493652 357.24 0.493652Z" stroke="#048C80" stroke-miterlimit="10"/>
<path d="M351.407 40.499L330.858 52.3637C340.2 39.3716 331.802 20.9034 312.372 17.9641V40.8838C305.42 27.0416 285.753 25.4355 273.722 40.5035L293.568 51.9611C278.102 51.0618 266.877 67.2886 273.915 85.2422L294.723 73.2299C285.211 85.9222 291.779 106.301 312.368 107.446V82.4505C318.072 97.7959 339.676 102.878 351.21 85.2422L329.565 72.7467C345.707 75.4757 360.909 59.3072 351.407 40.5035V40.499Z" fill="url(#paint2_linear_4111_638)"/>
</g>
<g clip-path="url(#clip3_4111_638)">
<path d="M107.24 125.494H18.5773C8.66669 125.494 0.632568 133.528 0.632568 143.438V232.102C0.632568 242.012 8.66669 250.046 18.5773 250.046H107.24C117.151 250.046 125.185 242.012 125.185 232.102V143.438C125.185 133.528 117.151 125.494 107.24 125.494Z" stroke="#048C80" stroke-miterlimit="10"/>
<path d="M78.3886 145.586V157.634L63.4414 172.581H63.0969L48.1497 157.634V145.581C52.8741 143.886 57.9609 142.96 63.2669 142.96C68.5729 142.96 73.6642 143.886 78.3886 145.586Z" fill="url(#paint3_linear_4111_638)"/>
<path d="M78.3886 217.772V229.82C73.6642 231.52 68.5729 232.446 63.2669 232.446C57.9609 232.446 52.8741 231.525 48.1497 229.825V217.772L63.0969 202.825H63.4414L78.3886 217.772Z" fill="url(#paint4_linear_4111_638)"/>
<path d="M101.483 164.434L93.3357 172.581H78.384V157.634L86.531 149.487C92.6244 153.2 97.7604 158.336 101.483 164.434Z" fill="url(#paint5_linear_4111_638)"/>
<path d="M48.1452 202.825V217.772L39.9938 225.923C33.9004 222.201 28.7644 217.065 25.0466 210.972L33.1936 202.825H48.1452Z" fill="url(#paint6_linear_4111_638)"/>
<path d="M101.483 210.972C97.7649 217.065 92.6288 222.201 86.5354 225.923L78.384 217.772V202.825H93.3357L101.483 210.972Z" fill="url(#paint7_linear_4111_638)"/>
<path d="M48.1452 157.634V172.581H33.1936L25.0466 164.434C28.7689 158.336 33.9049 153.2 39.9983 149.487L48.1452 157.634Z" fill="url(#paint8_linear_4111_638)"/>
<path d="M108.006 187.703C108.006 193.009 107.079 198.1 105.379 202.825H93.3357L78.384 187.873V187.533L93.3357 172.581H105.379C107.079 177.306 108.006 182.397 108.006 187.703Z" fill="url(#paint9_linear_4111_638)"/>
<path d="M48.1452 187.533V187.873L33.1935 202.825H21.1498C19.4498 198.1 18.5237 193.009 18.5237 187.703C18.5237 182.397 19.4498 177.306 21.1498 172.581H33.1935L48.1452 187.533Z" fill="url(#paint10_linear_4111_638)"/>
</g>
<g clip-path="url(#clip4_4111_638)">
<path d="M232.24 125.494H143.577C133.667 125.494 125.633 133.528 125.633 143.438V232.102C125.633 242.012 133.667 250.046 143.577 250.046H232.24C242.151 250.046 250.185 242.012 250.185 232.102V143.438C250.185 133.528 242.151 125.494 232.24 125.494Z" stroke="#048C80" stroke-miterlimit="10"/>
<path d="M169.996 187.059C158.695 187.014 149.546 177.834 149.546 166.519C149.546 155.205 158.739 145.984 170.081 145.984C181.422 145.984 190.616 155.182 190.616 166.519H169.991V187.059H169.996Z" fill="url(#paint11_linear_4111_638)"/>
<path d="M232.388 166.609C232.343 177.91 223.163 187.059 211.849 187.059C200.507 187.059 191.314 177.865 191.314 166.524C191.314 155.178 200.512 145.989 211.849 145.989V166.613H232.388V166.609Z" fill="url(#paint12_linear_4111_638)"/>
<path d="M190.915 208.126C190.96 196.825 200.141 187.676 211.455 187.676C222.796 187.676 231.99 196.87 231.99 208.211C231.99 219.557 222.792 228.746 211.455 228.746V208.122H190.915V208.126Z" fill="url(#paint13_linear_4111_638)"/>
<path d="M170.17 187.676C181.471 187.721 190.62 196.901 190.62 208.216C190.62 219.557 181.426 228.751 170.085 228.751C158.739 228.751 149.55 219.553 149.55 208.216H170.175V187.676H170.17Z" fill="url(#paint14_linear_4111_638)"/>
</g>
<g clip-path="url(#clip5_4111_638)">
<path d="M357.24 125.494H268.577C258.667 125.494 250.633 133.528 250.633 143.438V232.102C250.633 242.012 258.667 250.046 268.577 250.046H357.24C367.151 250.046 375.185 242.012 375.185 232.102V143.438C375.185 133.528 367.151 125.494 357.24 125.494Z" stroke="#048C80" stroke-miterlimit="10"/>
<path d="M357.648 187.604V187.627H343.649V187.269C343.649 170.631 330.16 157.142 313.526 157.142C313.347 157.142 313.168 157.142 312.989 157.146V143.031C337.605 143.076 357.558 162.998 357.648 187.604Z" fill="url(#paint15_linear_4111_638)"/>
<path d="M357.639 187.05C357.639 186.772 357.625 186.499 357.621 186.222C357.63 186.499 357.634 186.772 357.639 187.05Z" fill="url(#paint16_linear_4111_638)"/>
<path d="M357.612 185.998C357.603 185.663 357.576 185.332 357.558 184.996C357.558 185.045 357.567 185.09 357.567 185.139C357.589 185.426 357.603 185.712 357.612 185.998Z" fill="url(#paint17_linear_4111_638)"/>
<path d="M357.428 183.359C357.428 183.359 357.428 183.35 357.428 183.345C357.437 183.462 357.455 183.582 357.464 183.699C357.46 183.627 357.451 183.56 357.442 183.493C357.437 183.448 357.433 183.403 357.428 183.359Z" fill="url(#paint18_linear_4111_638)"/>
<path d="M357.428 183.345C357.41 183.139 357.384 182.938 357.366 182.737C357.379 182.826 357.388 182.911 357.402 183.001C357.415 183.117 357.424 183.229 357.433 183.345H357.428Z" fill="url(#paint19_linear_4111_638)"/>
<path d="M357.469 183.77C357.469 183.743 357.464 183.721 357.464 183.699C357.478 183.793 357.487 183.887 357.491 183.981C357.496 184.039 357.5 184.092 357.5 184.151C357.491 184.025 357.482 183.896 357.469 183.77Z" fill="url(#paint20_linear_4111_638)"/>
<path d="M357.115 180.854C357.111 180.823 357.106 180.791 357.102 180.76C357.102 180.782 357.111 180.805 357.111 180.823C357.111 180.832 357.111 180.841 357.111 180.854H357.115Z" fill="url(#paint21_linear_4111_638)"/>
<path d="M357.115 180.867C357.115 180.867 357.115 180.858 357.115 180.853C357.16 181.157 357.214 181.462 357.249 181.77V181.788C357.205 181.48 357.164 181.175 357.115 180.867Z" fill="url(#paint22_linear_4111_638)"/>
<path d="M357.648 187.605C357.648 187.417 357.643 187.233 357.639 187.05C357.639 187.18 357.648 187.305 357.648 187.435V187.605Z" fill="url(#paint23_linear_4111_638)"/>
<path d="M357.648 232.365V232.509H343.644C343.649 232.406 343.649 232.303 343.649 232.2C343.649 228.581 343.009 225.109 341.837 221.892C341.81 221.807 341.779 221.722 341.743 221.637C340.052 217.11 337.296 213.096 333.784 209.902C333.721 209.844 333.659 209.79 333.596 209.737C328.268 204.972 321.235 202.073 313.526 202.073C313.347 202.073 313.168 202.073 312.989 202.077V187.627C323.901 187.645 333.896 191.573 341.649 198.082C341.68 198.105 341.712 198.131 341.743 198.163C345.667 201.469 349.013 205.442 351.603 209.902C351.639 209.956 351.67 210.009 351.702 210.068C355.487 216.631 357.648 224.245 357.648 232.365Z" fill="url(#paint24_linear_4111_638)"/>
<path d="M312.909 187.604V187.627H298.91V187.434C298.91 179.713 296.002 172.675 291.229 167.342C291.179 167.284 291.13 167.23 291.081 167.177C287.73 163.49 283.475 160.64 278.67 158.976C278.599 158.945 278.527 158.922 278.451 158.896C275.418 157.871 272.17 157.312 268.788 157.312C268.582 157.312 268.376 157.312 268.17 157.321V143.031H272.004C278.657 143.59 284.894 145.613 290.396 148.771C290.495 148.825 290.589 148.879 290.683 148.937C295.268 151.612 299.335 155.079 302.7 159.151C302.767 159.236 302.834 159.321 302.905 159.406C309.16 167.096 312.909 176.912 312.909 187.604Z" fill="url(#paint25_linear_4111_638)"/>
<path d="M312.989 217.722V232.173H312.909C304.82 232.173 297.228 230.026 290.683 226.268C288.696 225.131 286.804 223.843 285.023 222.42C282.616 220.501 280.415 218.34 278.456 215.973C276.881 214.076 275.458 212.045 274.214 209.902C270.398 203.352 268.206 195.747 268.175 187.627H283.399C283.399 191.04 283.972 194.324 285.023 197.38C286.343 201.232 288.419 204.73 291.081 207.697C291.77 208.466 292.499 209.204 293.264 209.902C296.051 212.43 299.313 214.448 302.905 215.799C306.05 216.989 309.446 217.66 312.989 217.722Z" fill="url(#paint26_linear_4111_638)"/>
</g>
<g clip-path="url(#clip6_4111_638)">
<path d="M107.24 250.494H18.5773C8.66669 250.494 0.632568 258.528 0.632568 268.438V357.102C0.632568 367.012 8.66669 375.046 18.5773 375.046H107.24C117.151 375.046 125.185 367.012 125.185 357.102V268.438C125.185 258.528 117.151 250.494 107.24 250.494Z" stroke="#048C80" stroke-miterlimit="10"/>
<path d="M96.9999 268.237H64.8149V278.701H89.7075L64.7433 303.666L72.1431 311.065L96.9999 286.204V310.886H107.464V278.701V268.237H96.9999Z" fill="url(#paint27_linear_4111_638)"/>
<path d="M50.2434 268.412V293.094L25.3866 268.237L17.9868 275.637L42.951 300.601H18.0584V311.065H50.2434H60.7078V300.601V268.412H50.2434Z" fill="url(#paint28_linear_4111_638)"/>
<path d="M107.464 350.35L82.5001 325.386H107.393V314.922H75.2077H64.7433V325.386V357.576H75.2077V332.893L100.065 357.75L107.464 350.35Z" fill="url(#paint29_linear_4111_638)"/>
<path d="M50.2434 314.922H18.0584V325.386H42.951L17.9868 350.35L25.3866 357.75L50.2434 332.893V357.576H60.7078V325.386V314.922H50.2434Z" fill="url(#paint30_linear_4111_638)"/>
</g>
<g clip-path="url(#clip7_4111_638)">
<path d="M232.24 250.494H143.577C133.667 250.494 125.633 258.528 125.633 268.438V357.102C125.633 367.012 133.667 375.046 143.577 375.046H232.24C242.151 375.046 250.185 367.012 250.185 357.102V268.438C250.185 258.528 242.151 250.494 232.24 250.494Z" stroke="#048C80" stroke-miterlimit="10"/>
<path d="M167.973 280.084C186.017 280.084 200.646 294.714 200.646 312.757C200.646 330.8 186.017 345.429 167.973 345.429V280.084Z" fill="url(#paint31_linear_4111_638)"/>
<path d="M167.973 312.757C167.973 324.29 160.6 334.102 150.311 337.739V287.779C160.6 291.416 167.973 301.228 167.973 312.761V312.757Z" fill="url(#paint32_linear_4111_638)"/>
<path d="M150.311 312.757C150.311 320.555 146.785 327.525 141.238 332.169V293.349C146.785 297.989 150.311 304.963 150.311 312.761V312.757Z" fill="url(#paint33_linear_4111_638)"/>
<path d="M230.715 312.757C230.715 320.555 227.19 327.525 221.642 332.169V293.349C227.19 297.989 230.715 304.963 230.715 312.761V312.757Z" fill="url(#paint34_linear_4111_638)"/>
<path d="M219.973 312.757C219.973 324.29 212.6 334.102 202.31 337.739V287.779C212.6 291.416 219.973 301.228 219.973 312.761V312.757Z" fill="url(#paint35_linear_4111_638)"/>
</g>
<g clip-path="url(#clip8_4111_638)">
<path d="M357.24 250.494H268.577C258.667 250.494 250.633 258.528 250.633 268.438V357.102C250.633 367.012 258.667 375.046 268.577 375.046H357.24C367.151 375.046 375.185 367.012 375.185 357.102V268.438C375.185 258.528 367.151 250.494 357.24 250.494Z" stroke="#048C80" stroke-miterlimit="10"/>
<path d="M356.95 321.942C353.022 342.96 334.58 358.869 312.421 358.869C308.055 358.869 303.836 358.252 299.845 357.102V321.942H356.95Z" fill="url(#paint36_linear_4111_638)"/>
<path d="M297.407 270.823C317.575 263.714 340.571 271.731 351.653 290.92C353.836 294.7 355.411 298.664 356.408 302.695L325.959 320.273L297.407 270.819V270.823Z" fill="url(#paint37_linear_4111_638)"/>
<path d="M282.907 347.948C266.667 334.039 262.108 310.113 273.19 290.92C275.373 287.139 278.017 283.793 281.01 280.912L311.459 298.489L282.907 347.944V347.948Z" fill="url(#paint38_linear_4111_638)"/>
</g>
<rect y="-5.28809" width="375" height="381" fill="url(#paint39_linear_4111_638)"/>
<defs>
<linearGradient id="paint0_linear_4111_638" x1="103.084" y1="22.2815" x2="-11.3612" y2="105.229" gradientUnits="userSpaceOnUse">
<stop stop-color="#AAD9D1"/>
<stop offset="1" stop-color="#017373"/>
</linearGradient>
<linearGradient id="paint1_linear_4111_638" x1="236.638" y1="13.5127" x2="97.2243" y2="113.501" gradientUnits="userSpaceOnUse">
<stop stop-color="#AAD9D1"/>
<stop offset="1" stop-color="#017373"/>
</linearGradient>
<linearGradient id="paint2_linear_4111_638" x1="354.346" y1="17.9641" x2="230.67" y2="100.686" gradientUnits="userSpaceOnUse">
<stop stop-color="#AAD9D1"/>
<stop offset="1" stop-color="#017373"/>
</linearGradient>
<linearGradient id="paint3_linear_4111_638" x1="78.3886" y1="142.96" x2="36.0288" y2="174.301" gradientUnits="userSpaceOnUse">
<stop stop-color="#AAD9D1"/>
<stop offset="1" stop-color="#017373"/>
</linearGradient>
<linearGradient id="paint4_linear_4111_638" x1="78.3886" y1="202.825" x2="36.0288" y2="234.166" gradientUnits="userSpaceOnUse">
<stop stop-color="#AAD9D1"/>
<stop offset="1" stop-color="#017373"/>
</linearGradient>
<linearGradient id="paint5_linear_4111_638" x1="101.483" y1="149.487" x2="68.6602" y2="173.281" gradientUnits="userSpaceOnUse">
<stop stop-color="#AAD9D1"/>
<stop offset="1" stop-color="#017373"/>
</linearGradient>
<linearGradient id="paint6_linear_4111_638" x1="48.1452" y1="202.825" x2="15.3185" y2="226.617" gradientUnits="userSpaceOnUse">
<stop stop-color="#AAD9D1"/>
<stop offset="1" stop-color="#017373"/>
</linearGradient>
<linearGradient id="paint7_linear_4111_638" x1="101.483" y1="202.825" x2="68.6559" y2="226.617" gradientUnits="userSpaceOnUse">
<stop stop-color="#AAD9D1"/>
<stop offset="1" stop-color="#017373"/>
</linearGradient>
<linearGradient id="paint8_linear_4111_638" x1="48.1452" y1="149.487" x2="15.3228" y2="173.281" gradientUnits="userSpaceOnUse">
<stop stop-color="#AAD9D1"/>
<stop offset="1" stop-color="#017373"/>
</linearGradient>
<linearGradient id="paint9_linear_4111_638" x1="108.006" y1="172.581" x2="65.3102" y2="202.89" gradientUnits="userSpaceOnUse">
<stop stop-color="#AAD9D1"/>
<stop offset="1" stop-color="#017373"/>
</linearGradient>
<linearGradient id="paint10_linear_4111_638" x1="48.1452" y1="172.581" x2="5.44985" y2="202.89" gradientUnits="userSpaceOnUse">
<stop stop-color="#AAD9D1"/>
<stop offset="1" stop-color="#017373"/>
</linearGradient>
<linearGradient id="paint11_linear_4111_638" x1="190.616" y1="145.984" x2="132.244" y2="188.286" gradientUnits="userSpaceOnUse">
<stop stop-color="#AAD9D1"/>
<stop offset="1" stop-color="#017373"/>
</linearGradient>
<linearGradient id="paint12_linear_4111_638" x1="232.388" y1="145.989" x2="174.019" y2="188.298" gradientUnits="userSpaceOnUse">
<stop stop-color="#AAD9D1"/>
<stop offset="1" stop-color="#017373"/>
</linearGradient>
<linearGradient id="paint13_linear_4111_638" x1="231.99" y1="187.676" x2="173.621" y2="229.986" gradientUnits="userSpaceOnUse">
<stop stop-color="#AAD9D1"/>
<stop offset="1" stop-color="#017373"/>
</linearGradient>
<linearGradient id="paint14_linear_4111_638" x1="190.62" y1="187.676" x2="132.249" y2="229.978" gradientUnits="userSpaceOnUse">
<stop stop-color="#AAD9D1"/>
<stop offset="1" stop-color="#017373"/>
</linearGradient>
<linearGradient id="paint15_linear_4111_638" x1="357.648" y1="143.031" x2="294.243" y2="189.05" gradientUnits="userSpaceOnUse">
<stop stop-color="#AAD9D1"/>
<stop offset="1" stop-color="#017373"/>
</linearGradient>
<linearGradient id="paint16_linear_4111_638" x1="357.639" y1="186.222" x2="357.6" y2="186.223" gradientUnits="userSpaceOnUse">
<stop stop-color="#AAD9D1"/>
<stop offset="1" stop-color="#017373"/>
</linearGradient>
<linearGradient id="paint17_linear_4111_638" x1="357.612" y1="184.996" x2="357.496" y2="185.001" gradientUnits="userSpaceOnUse">
<stop stop-color="#AAD9D1"/>
<stop offset="1" stop-color="#017373"/>
</linearGradient>
<linearGradient id="paint18_linear_4111_638" x1="357.464" y1="183.345" x2="357.387" y2="183.351" gradientUnits="userSpaceOnUse">
<stop stop-color="#AAD9D1"/>
<stop offset="1" stop-color="#017373"/>
</linearGradient>
<linearGradient id="paint19_linear_4111_638" x1="357.433" y1="182.737" x2="357.288" y2="182.748" gradientUnits="userSpaceOnUse">
<stop stop-color="#AAD9D1"/>
<stop offset="1" stop-color="#017373"/>
</linearGradient>
<linearGradient id="paint20_linear_4111_638" x1="357.5" y1="183.699" x2="357.423" y2="183.703" gradientUnits="userSpaceOnUse">
<stop stop-color="#AAD9D1"/>
<stop offset="1" stop-color="#017373"/>
</linearGradient>
<linearGradient id="paint21_linear_4111_638" x1="357.115" y1="180.76" x2="357.086" y2="180.763" gradientUnits="userSpaceOnUse">
<stop stop-color="#AAD9D1"/>
<stop offset="1" stop-color="#017373"/>
</linearGradient>
<linearGradient id="paint22_linear_4111_638" x1="357.249" y1="180.853" x2="356.962" y2="180.883" gradientUnits="userSpaceOnUse">
<stop stop-color="#AAD9D1"/>
<stop offset="1" stop-color="#017373"/>
</linearGradient>
<linearGradient id="paint23_linear_4111_638" x1="357.648" y1="187.05" x2="357.628" y2="187.05" gradientUnits="userSpaceOnUse">
<stop stop-color="#AAD9D1"/>
<stop offset="1" stop-color="#017373"/>
</linearGradient>
<linearGradient id="paint24_linear_4111_638" x1="357.648" y1="187.627" x2="293.963" y2="233.554" gradientUnits="userSpaceOnUse">
<stop stop-color="#AAD9D1"/>
<stop offset="1" stop-color="#017373"/>
</linearGradient>
<linearGradient id="paint25_linear_4111_638" x1="312.909" y1="143.031" x2="249.469" y2="189.159" gradientUnits="userSpaceOnUse">
<stop stop-color="#AAD9D1"/>
<stop offset="1" stop-color="#017373"/>
</linearGradient>
<linearGradient id="paint26_linear_4111_638" x1="312.989" y1="187.627" x2="249.565" y2="233.873" gradientUnits="userSpaceOnUse">
<stop stop-color="#AAD9D1"/>
<stop offset="1" stop-color="#017373"/>
</linearGradient>
<linearGradient id="paint27_linear_4111_638" x1="107.464" y1="268.237" x2="46.6461" y2="312.206" gradientUnits="userSpaceOnUse">
<stop stop-color="#AAD9D1"/>
<stop offset="1" stop-color="#017373"/>
</linearGradient>
<linearGradient id="paint28_linear_4111_638" x1="60.7078" y1="268.237" x2="-0.110391" y2="312.206" gradientUnits="userSpaceOnUse">
<stop stop-color="#AAD9D1"/>
<stop offset="1" stop-color="#017373"/>
</linearGradient>
<linearGradient id="paint29_linear_4111_638" x1="107.464" y1="314.922" x2="46.6461" y2="358.891" gradientUnits="userSpaceOnUse">
<stop stop-color="#AAD9D1"/>
<stop offset="1" stop-color="#017373"/>
</linearGradient>
<linearGradient id="paint30_linear_4111_638" x1="60.7078" y1="314.922" x2="-0.110394" y2="358.891" gradientUnits="userSpaceOnUse">
<stop stop-color="#AAD9D1"/>
<stop offset="1" stop-color="#017373"/>
</linearGradient>
<linearGradient id="paint31_linear_4111_638" x1="200.646" y1="280.084" x2="138.043" y2="302.771" gradientUnits="userSpaceOnUse">
<stop stop-color="#AAD9D1"/>
<stop offset="1" stop-color="#017373"/>
</linearGradient>
<linearGradient id="paint32_linear_4111_638" x1="167.973" y1="287.779" x2="132.045" y2="296.985" gradientUnits="userSpaceOnUse">
<stop stop-color="#AAD9D1"/>
<stop offset="1" stop-color="#017373"/>
</linearGradient>
<linearGradient id="paint33_linear_4111_638" x1="150.311" y1="293.349" x2="131.192" y2="296.588" gradientUnits="userSpaceOnUse">
<stop stop-color="#AAD9D1"/>
<stop offset="1" stop-color="#017373"/>
</linearGradient>
<linearGradient id="paint34_linear_4111_638" x1="230.715" y1="293.349" x2="211.596" y2="296.588" gradientUnits="userSpaceOnUse">
<stop stop-color="#AAD9D1"/>
<stop offset="1" stop-color="#017373"/>
</linearGradient>
<linearGradient id="paint35_linear_4111_638" x1="219.973" y1="287.779" x2="184.045" y2="296.985" gradientUnits="userSpaceOnUse">
<stop stop-color="#AAD9D1"/>
<stop offset="1" stop-color="#017373"/>
</linearGradient>
<linearGradient id="paint36_linear_4111_638" x1="356.95" y1="321.942" x2="302.085" y2="383.434" gradientUnits="userSpaceOnUse">
<stop stop-color="#AAD9D1"/>
<stop offset="1" stop-color="#017373"/>
</linearGradient>
<linearGradient id="paint37_linear_4111_638" x1="356.408" y1="268.263" x2="280.099" y2="331.006" gradientUnits="userSpaceOnUse">
<stop stop-color="#AAD9D1"/>
<stop offset="1" stop-color="#017373"/>
</linearGradient>
<linearGradient id="paint38_linear_4111_638" x1="311.459" y1="280.912" x2="233.297" y2="318.388" gradientUnits="userSpaceOnUse">
<stop stop-color="#AAD9D1"/>
<stop offset="1" stop-color="#017373"/>
</linearGradient>
<linearGradient id="paint39_linear_4111_638" x1="188.017" y1="-5.28809" x2="187.715" y2="375.712" gradientUnits="userSpaceOnUse">
<stop stop-color="#080808"/>
<stop offset="0.5" stop-color="#080808" stop-opacity="0"/>
<stop offset="1" stop-color="#080808"/>
</linearGradient>
<clipPath id="clip0_4111_638">
<rect width="125" height="125" fill="white" transform="translate(0.408936 0.27002)"/>
</clipPath>
<clipPath id="clip1_4111_638">
<rect width="125" height="125" fill="white" transform="translate(125.409 0.27002)"/>
</clipPath>
<clipPath id="clip2_4111_638">
<rect width="125" height="125" fill="white" transform="translate(250.409 0.27002)"/>
</clipPath>
<clipPath id="clip3_4111_638">
<rect width="125" height="125" fill="white" transform="translate(0.408936 125.27)"/>
</clipPath>
<clipPath id="clip4_4111_638">
<rect width="125" height="125" fill="white" transform="translate(125.409 125.27)"/>
</clipPath>
<clipPath id="clip5_4111_638">
<rect width="125" height="125" fill="white" transform="translate(250.409 125.27)"/>
</clipPath>
<clipPath id="clip6_4111_638">
<rect width="125" height="125" fill="white" transform="translate(0.408936 250.27)"/>
</clipPath>
<clipPath id="clip7_4111_638">
<rect width="125" height="125" fill="white" transform="translate(125.409 250.27)"/>
</clipPath>
<clipPath id="clip8_4111_638">
<rect width="125" height="125" fill="white" transform="translate(250.409 250.27)"/>
</clipPath>
</defs>
</svg>
