<svg width="856" height="710" viewBox="0 0 856 710" fill="none" xmlns="http://www.w3.org/2000/svg">
<path d="M33.4304 680.075L33.4205 680.084L33.4106 680.094L9.53015 703.975L5.98162 707.523H11H241.208H242.047L242.651 706.941L404.083 551.24L405.606 549.771L404.11 548.274L289.483 433.648L288.033 432.197L286.564 433.628L33.4304 680.075ZM557.464 411.241L723.149 246.503L723.153 246.499L726.974 242.678L727.583 242.069V241.208V11V5.98161L724.034 9.53015L701.112 32.4528L701.109 32.4555L439.888 292.726L177.723 33.4107L177.715 33.4027L154.798 10.4854L151.249 6.93688V11.9553V242.163V243.037L151.874 243.649L328.569 416.523L328.59 416.544L613.224 703.089L613.834 703.702H614.699H844.906H850.087L846.343 700.122L824.418 679.151L824.397 679.129L764.239 618.017L764.233 618.011L764.227 618.005L557.464 411.241Z" stroke="url(#paint0_linear_1012_14)" stroke-width="4.15736"/>
<path d="M68.7537 447.86H172.225C174.02 447.475 175.174 446.834 175.687 445.936C176.2 445.039 176.649 443.885 177.033 442.474C177.033 441.064 176.713 439.846 176.072 438.82C175.431 437.795 174.148 437.089 172.225 436.705H83.1782C81.6396 436.32 79.9728 435.807 78.1777 435.166C76.5109 434.397 74.9082 433.499 73.3696 432.474C71.9592 431.448 70.7411 430.358 69.7154 429.204C68.6896 427.922 68.1127 426.576 67.9844 425.165V399.778C67.9844 397.214 68.2409 394.585 68.7537 391.893C69.2666 389.072 70.1641 386.572 71.4463 384.392C72.7285 382.084 74.3953 380.225 76.4468 378.815C78.6265 377.404 81.2549 376.699 84.3322 376.699H210.306V402.086H106.642C104.719 402.727 103.501 403.368 102.988 404.009C102.475 404.65 102.026 405.804 101.642 407.471C101.642 410.677 103.308 412.6 106.642 413.241H196.266C198.83 413.241 201.074 414.01 202.997 415.549C204.921 417.087 206.459 419.075 207.613 421.511C208.895 423.819 209.793 426.447 210.306 429.396C210.947 432.217 211.267 434.91 211.267 437.474V450.552C211.267 452.988 211.139 455.553 210.883 458.245C210.626 460.938 209.985 463.438 208.959 465.746C208.062 467.926 206.587 469.785 204.536 471.323C202.484 472.734 199.728 473.439 196.266 473.439H68.7537V447.86ZM329.805 376.699H361.154V473.439H329.997V436.705H249.028V473.439H217.871V376.699H249.413V413.241H329.805V376.699ZM446.157 433.628L427.299 397.091L409.227 433.628H446.157ZM466.586 473.439L457.419 455.629H398.357L389.583 473.439H358.546L407.786 376.007H447.335L499.456 473.439H466.586ZM500.541 413.241H594.781C596.832 413.241 598.05 412.6 598.435 411.318C598.948 410.035 599.204 408.753 599.204 407.471C599.204 406.061 598.948 404.971 598.435 404.202C597.922 403.432 596.768 402.727 594.973 402.086H500.541V376.699H622.86C624.912 377.084 626.45 377.596 627.476 378.238C628.63 378.75 629.528 379.392 630.169 380.161C630.81 380.93 631.258 381.699 631.515 382.469C631.9 383.238 632.348 384.007 632.861 384.777V426.704C632.477 428.883 631.579 430.871 630.169 432.666C628.758 434.333 626.322 435.615 622.86 436.512H613.244L674.019 514.981H636.708L574.394 436.705H530.928V473.439H500.541V413.241ZM682.695 436.897C680.387 436.897 678.912 437.602 678.271 439.013C677.758 440.295 677.502 441.641 677.502 443.051C677.502 444.205 677.822 445.167 678.464 445.936C679.233 446.706 680.515 447.411 682.31 448.052H785.781V473.439H653.846C651.794 473.054 650.192 472.606 649.038 472.093C648.012 471.452 647.178 470.746 646.537 469.977C645.896 469.208 645.383 468.438 644.999 467.669C644.742 466.9 644.358 466.131 643.845 465.361V423.627C644.229 421.447 645.063 419.524 646.345 417.857C647.755 416.062 650.127 414.651 653.461 413.626V384.777C653.974 384.007 654.359 383.238 654.615 382.469C655 381.699 655.513 380.93 656.154 380.161C656.795 379.392 657.628 378.75 658.654 378.238C659.808 377.596 661.411 377.084 663.462 376.699H785.781V402.086H691.349C689.554 402.727 688.4 403.432 687.887 404.202C687.375 404.971 687.118 406.061 687.118 407.471C687.118 408.753 687.311 410.035 687.695 411.318C688.208 412.6 689.49 413.241 691.542 413.241H785.781V436.897H682.695Z" fill="black"/>
<defs>
<linearGradient id="paint0_linear_1012_14" x1="428.362" y1="104.705" x2="427.323" y2="896.683" gradientUnits="userSpaceOnUse">
<stop offset="0.379024"/>
<stop offset="0.418876" stop-opacity="0"/>
</linearGradient>
</defs>
</svg>
