<svg width="33" height="32" viewBox="0 0 33 32" fill="none" xmlns="http://www.w3.org/2000/svg">
<rect x="1.38177" y="0.5" width="31" height="31" rx="4.5" stroke="#048C80"/>
<path d="M6.88177 17.0121H12.3869C12.5668 20.3203 13.6231 23.3934 15.3261 26C10.8396 25.2978 7.33479 21.607 6.88177 17.0121ZM6.88177 14.988C7.33479 10.393 10.8396 6.7021 15.3261 6C13.6231 8.60658 12.5668 11.6797 12.3869 14.988H6.88177ZM26.8818 14.988H21.3766C21.1967 11.6797 20.1404 8.60658 18.4374 6C22.9239 6.7021 26.4287 10.393 26.8818 14.988ZM26.8818 17.0121C26.4287 21.607 22.9239 25.2978 18.4374 26C20.1404 23.3934 21.1967 20.3203 21.3766 17.0121H26.8818ZM14.4002 17.0121H19.3633C19.1908 19.8284 18.3034 22.45 16.8817 24.6951C15.46 22.45 14.5727 19.8284 14.4002 17.0121ZM14.4002 14.988C14.5727 12.1716 15.46 9.54997 16.8817 7.30493C18.3034 9.54997 19.1908 12.1716 19.3633 14.988H14.4002Z" fill="url(#paint0_linear_4111_276)"/>
<defs>
<linearGradient id="paint0_linear_4111_276" x1="26.8818" y1="6" x2="-1.54139" y2="26.6005" gradientUnits="userSpaceOnUse">
<stop stop-color="#AAD9D1"/>
<stop offset="1" stop-color="#017373"/>
</linearGradient>
</defs>
</svg>
